<svg width="223" height="224" xmlns="http://www.w3.org/2000/svg" xmlns:xlink="http://www.w3.org/1999/xlink" overflow="hidden"><defs><clipPath id="clip0"><path d="M538 248 761 248 761 472 538 472Z" fill-rule="evenodd" clip-rule="evenodd"/></clipPath><clipPath id="clip1"><path d="M588 292 711 292 711 428 588 428Z" fill-rule="evenodd" clip-rule="evenodd"/></clipPath><clipPath id="clip2"><path d="M588 292 711 292 711 428 588 428Z" fill-rule="evenodd" clip-rule="evenodd"/></clipPath><clipPath id="clip3"><path d="M588 292 711 292 711 428 588 428Z" fill-rule="evenodd" clip-rule="evenodd"/></clipPath><clipPath id="clip4"><path d="M588 292 711 292 711 428 588 428Z" fill-rule="evenodd" clip-rule="evenodd"/></clipPath></defs><g clip-path="url(#clip0)" transform="translate(-538 -248)"><path d="M538 360C538 298.696 587.92 249 649.5 249 711.08 249 761 298.696 761 360 761 421.304 711.08 471 649.5 471 587.92 471 538 421.304 538 360Z" fill="#C02626" fill-rule="evenodd"/><g clip-path="url(#clip1)"><g clip-path="url(#clip2)"><g clip-path="url(#clip3)"><g clip-path="url(#clip4)"><path d="M0 0 8.38533e-05 120.748" stroke="#FFFFFF" stroke-width="21.2987" stroke-miterlimit="8" fill="none" fill-rule="evenodd" transform="matrix(-1 -1.50996e-07 -1.51241e-07 1.00163 599.581 295.6)"/><path d="M0 0 8.38533e-05 120.748" stroke="#FFFFFF" stroke-width="21.2987" stroke-miterlimit="8" fill="none" fill-rule="evenodd" transform="matrix(-1 -1.50996e-07 -1.51241e-07 1.00163 700.218 295.6)"/><path d="M0 0 54.3368 54.3368" stroke="#FFFFFF" stroke-width="21.2987" stroke-miterlimit="8" fill="none" fill-rule="evenodd" transform="matrix(-1 -1.50996e-07 -1.51241e-07 1.00163 697.048 303.6)"/><path d="M0 0-54.3368-54.3368" stroke="#FFFFFF" stroke-width="21.2987" stroke-miterlimit="8" fill="none" fill-rule="evenodd" transform="matrix(4.37825e-08 1.00163 1 -4.37114e-08 657.113 358.026)"/></g></g></g></g></g></svg>