<svg width="154" height="170" xmlns="http://www.w3.org/2000/svg" xmlns:xlink="http://www.w3.org/1999/xlink" overflow="hidden"><defs><clipPath id="clip0"><path d="M571 280 725 280 725 450 571 450Z" fill-rule="evenodd" clip-rule="evenodd"/></clipPath></defs><g clip-path="url(#clip0)" transform="translate(-571 -280)"><path d="M0 0 0.000104987 151.181" stroke="#4472C4" stroke-width="26.6667" stroke-miterlimit="8" fill="none" fill-rule="evenodd" transform="matrix(-1 -8.74228e-08 -8.74228e-08 1 585.5 284.5)"/><path d="M0 0 0.000104987 151.181" stroke="#4472C4" stroke-width="26.6667" stroke-miterlimit="8" fill="none" fill-rule="evenodd" transform="matrix(-1 -8.74228e-08 -8.74228e-08 1 711.5 284.5)"/><path d="M0 0 68.0315 68.0315" stroke="#4472C4" stroke-width="26.6667" stroke-miterlimit="8" fill="none" fill-rule="evenodd" transform="matrix(-1 -8.74228e-08 -8.74228e-08 1 707.532 294.5)"/><path d="M0 0 68.0315 68.0315" stroke="#4472C4" stroke-width="26.6667" stroke-miterlimit="8" fill="none" fill-rule="evenodd" transform="matrix(-4.37114e-08 -1 -1 4.37114e-08 657.532 362.532)"/></g></svg>